<svg width="842" height="474" viewBox="0 0 842 474" fill="none" xmlns="http://www.w3.org/2000/svg">
<path d="M148.206 197.292C136.865 191.774 130.944 186.527 130.124 181.249C129.584 177.791 131.334 174.043 135.304 170.114C139.155 166.816 144.266 163.967 150.256 161.938V198.291C149.606 197.971 148.936 197.651 148.206 197.292ZM123.653 280.702C131.684 286.879 140.915 290.638 150.246 292.417V265.33C142.045 263.35 132.954 258.983 123.653 251.126V280.712V280.702ZM203.803 167.226C196.893 163.607 189.982 161.289 183.281 159.999V186.857C191.502 189.045 199.323 192.894 203.803 196.602V167.216V167.226ZM189.092 252.606C187.181 251.676 185.221 250.816 183.281 249.927V290.388C189.952 288.129 195.802 284.78 200.183 280.492V280.472C200.473 280.183 200.763 279.903 201.043 279.613C201.383 279.253 201.723 278.903 202.043 278.533C202.073 278.503 202.103 278.463 202.133 278.433C202.563 277.934 202.963 277.434 203.353 276.924C205.624 273.876 206.564 270.957 206.134 268.198C205.314 262.951 199.583 257.703 189.102 252.606M186.551 217.402C169.689 210.545 169.059 210.715 166.189 209.306C157.897 205.948 156.517 205.098 146.726 200.34C134.134 194.223 127.804 188.316 126.773 181.779L126.753 181.639C120.553 195.512 123.453 213.354 135.124 223.079C141.225 228.157 147.946 231.436 154.907 234.384C166.779 239.102 178.69 243.8 190.562 249.577C201.563 254.924 207.684 260.482 209.224 266.529C216.155 248.188 208.584 226.378 186.551 217.412" fill="#00277F"/>
<path d="M121.183 205.758C122.953 213.714 127.043 220.731 132.964 225.668C134.634 227.058 136.355 228.307 138.105 229.466H114.722C111.341 229.466 108.341 227.317 107.251 224.129L101 205.768H121.193M227.747 211.545C226.806 208.127 223.686 205.758 220.146 205.758H179.06V137L160.128 142.377C156.787 143.377 154.497 146.446 154.497 149.934V200.36C159.198 202.659 162.238 204.038 167.619 206.227C173.119 208.466 179.27 210.775 187.841 214.264C196.052 217.602 202.773 222.89 207.504 229.456H232.717L227.757 211.535L227.747 211.545ZM178.76 247.858C171.599 244.729 164.338 241.821 157.257 239.002C156.337 238.622 155.407 238.232 154.487 237.843V337.216L173.339 330.259C176.78 328.99 179.06 325.711 179.06 322.053V247.988C178.96 247.948 178.87 247.898 178.77 247.858" fill="#FFBF3C"/>
<path d="M248.179 280.083C273.683 299.673 311.217 295.265 326.169 277.874C342.862 258.463 337.701 228.157 310.727 217.202C287.044 207.577 295.555 211.895 284.524 206.017C273.483 200.14 276.513 188.076 289.385 185.547C301.896 183.098 320.029 188.836 327.88 195.313V167.346C299.726 152.593 271.332 159.369 258.731 171.124C244.169 184.698 244.679 210.415 259.601 222.82C269.302 230.896 280.593 234.384 291.895 239.302C309.437 246.948 308.027 259.762 296.816 264.08C285.594 268.388 267.302 266.819 248.189 250.696V280.083H248.179ZM741.664 290.918H715.42V242.61C714.62 232.165 715.48 224.579 704.719 224.629C695.208 224.679 692.407 230.736 691.827 240.571V290.918H667.154V241.591C666.414 231.685 664.224 224.589 654.232 224.589C644.361 224.589 643.541 231.266 643.071 241.341V290.918H616.687V201.849L617.017 201.47H633.03C635.99 201.47 638.54 203.599 639.16 206.577L640.48 212.934C641.411 212.015 641.981 210.665 642.791 209.616C651.652 198.141 669.984 197.272 680.346 206.457C683.076 208.876 684.976 211.945 686.867 215.223C691.437 207.117 698.218 202.209 706.509 200.75C728.712 196.832 740.574 211.005 741.664 235.993V290.928V290.918ZM471.188 200.26C414.191 203.239 413.121 286.13 467.578 291.937C496.262 294.996 521.125 277.254 520.195 244.409C519.375 215.373 496.812 198.941 471.188 200.26ZM471.428 224.219C497.922 221.32 500.962 264.74 477.009 268.198C449.506 272.186 447.595 226.838 471.428 224.219ZM603.616 234.664C603.096 200.3 572.312 196.952 548.779 203.579C543.728 204.998 538.627 207.637 534.707 209.556V231.775C538.557 229.466 541.398 228.507 545.808 226.518C552.939 223.299 565.641 221.05 572.842 225.009C579.002 228.397 578.662 235.024 578.742 240.561C565.391 237.313 547.558 233.774 536.067 243.31C522.945 254.195 523.325 277.144 537.167 287.099C549.149 295.705 572.922 293.556 581.753 280.462L582.223 285.73C582.473 288.659 584.843 290.908 587.664 290.908H603.596V234.654L603.616 234.664ZM564.421 252.006C569.011 251.656 574.162 252.755 578.392 254.605L578.592 254.874C579.252 262.201 574.992 268.908 566.311 271.677C549.649 277.004 541.828 253.725 564.421 251.996M397.649 170.784C393.448 172.023 390.158 176.501 390.158 181.879V290.918H417.431V164.257L397.659 170.784H397.649ZM347.682 290.918H374.876V203.299H347.682V290.918ZM358.874 164.367C340.911 166.316 343.052 194.293 361.904 192.854C380.547 191.424 378.526 162.228 358.874 164.367Z" fill="#00277F"/>
</svg>
