<svg width="48" height="24" viewBox="0 0 48 24" fill="none" xmlns="http://www.w3.org/2000/svg">
<path d="M0 12C0 5.37258 5.37258 0 12 0H36C42.6274 0 48 5.37258 48 12C48 18.6274 42.6274 24 36 24H12C5.37258 24 0 18.6274 0 12Z" fill="#FACC15"/>
<path fill-rule="evenodd" clip-rule="evenodd" d="M26.1419 3.80801C26.3219 3.70405 26.5051 3.61044 26.6908 3.527C29.4755 2.27544 32.8108 3.31182 34.3702 6.01277C35.875 8.61918 35.2105 11.8827 32.9369 13.7128C32.6974 13.9056 32.44 14.0825 32.1654 14.2411L21.8581 20.192C18.9771 21.8553 15.2931 20.8682 13.6298 17.9872C11.9664 15.1062 12.9535 11.4223 15.8346 9.75893L26.1419 3.80801ZM26.393 15.5865L22.0905 8.13433L16.6951 11.2494C14.6372 12.4375 13.9321 15.0689 15.1202 17.1267C16.3083 19.1846 18.9397 19.8897 20.9976 18.7016L26.393 15.5865Z" fill="white"/>
<circle cx="39.6" cy="15.6" r="7.65" fill="white" stroke="#FACC15" stroke-width="1.5"/>
<path d="M39.6003 13.6938C38.549 13.6938 37.694 14.5485 37.694 15.6C37.694 16.6515 38.5488 17.5063 39.6003 17.5063C40.6514 17.506 41.5065 16.6514 41.5065 15.6C41.5065 14.5486 40.6514 13.694 39.6003 13.6938ZM38.9753 18.4242L38.6413 18.307C38.306 18.1888 37.9988 18.0103 37.7331 17.7836L37.4645 17.5541L37.1589 17.7309L36.488 18.1176C36.4871 18.1166 36.486 18.1157 36.485 18.1147C36.3902 18.004 36.2793 17.8388 36.1706 17.6498C36.0636 17.4638 35.9683 17.271 35.9011 17.1147C35.8883 17.0849 35.8779 17.0569 35.8679 17.0316L36.5339 16.6488L36.8395 16.4721L36.7751 16.1244C36.7429 15.9501 36.7253 15.7761 36.7253 15.6C36.7253 15.4239 36.7427 15.2505 36.7751 15.0746L36.8395 14.7279L36.5339 14.5512L35.8649 14.1654C35.8765 14.136 35.8882 14.1025 35.904 14.0668C35.973 13.9102 36.0711 13.7197 36.1804 13.5365C36.2894 13.3538 36.4002 13.1941 36.4938 13.0854L37.1599 13.4682L37.4655 13.6449L37.7341 13.4154C37.9985 13.1895 38.3061 13.0112 38.6423 12.892L38.9753 12.7748V11.6518C39.1799 11.618 39.3884 11.6 39.6003 11.6C39.8124 11.6 40.0201 11.6179 40.2253 11.6518V12.7748L40.5573 12.892C40.8934 13.0111 41.2012 13.1897 41.4665 13.4164L41.735 13.6459L42.0407 13.4691L42.7106 13.0805C42.7121 13.0822 42.714 13.0836 42.7155 13.0854C42.8103 13.196 42.9203 13.3613 43.029 13.5502C43.136 13.7362 43.2313 13.929 43.2985 14.0854C43.3111 14.1146 43.3208 14.1424 43.3307 14.1674L42.6657 14.5512L42.36 14.7279L42.4245 15.0756C42.4564 15.2486 42.4753 15.4386 42.4753 15.6C42.4753 15.7625 42.4565 15.9516 42.4245 16.1244L42.361 16.4721L42.6667 16.6488L43.3337 17.0336C43.322 17.063 43.3114 17.0975 43.2956 17.1332C43.2265 17.2897 43.1285 17.4796 43.0192 17.6625C42.9098 17.8456 42.7977 18.0048 42.7038 18.1137L42.0407 17.7309L41.735 17.5541L41.4655 17.7836C41.201 18.0097 40.8945 18.1879 40.5583 18.307L40.2253 18.4252V19.5434C40.0117 19.579 39.79 19.6 39.5837 19.6C39.3849 19.6 39.1803 19.5814 38.9753 19.5473V18.4242Z" fill="#FACC15" stroke="#FACC15"/>
</svg>
