<svg width="48" height="24" viewBox="0 0 48 24" fill="none" xmlns="http://www.w3.org/2000/svg">
<path d="M0 12C0 5.37258 5.37258 0 12 0H36C42.6274 0 48 5.37258 48 12C48 18.6274 42.6274 24 36 24H12C5.37258 24 0 18.6274 0 12Z" fill="#D6D3D1"/>
<path d="M23.2299 16.318C23.2397 15.5504 23.8699 14.9361 24.6376 14.9459L35.2971 15.0823C36.0647 15.0921 36.679 15.7224 36.6692 16.49C36.6594 17.2576 36.0291 17.8719 35.2615 17.8621L24.602 17.7257C23.8344 17.7159 23.2201 17.0856 23.2299 16.318Z" fill="white"/>
<path d="M20.6505 3.13156C20.248 2.43302 19.3562 2.19228 18.6565 2.59548C17.9568 2.99869 17.6823 3.91145 18.0848 4.60999L18.309 4.99899C19.1963 6.53878 19.0925 8.44221 17.9917 9.84007C16.1512 12.175 15.8828 15.4102 17.3681 17.9877L19.0287 20.8696C19.4525 21.605 20.3598 21.7877 21.0227 21.4057C21.7581 20.982 21.9825 20.147 21.5588 19.4117L19.8982 16.5298C19.6681 16.1305 19.5459 15.6901 19.451 15.2603L23.8058 17.4627L25.8725 15.2433L25.8703 15.2422L28.7699 11.6649L31.2671 12.8498C32.0073 13.1658 32.868 12.8225 33.1839 12.0823C33.4793 11.3065 33.1566 10.4814 32.4164 10.1654L29.3964 8.87247C28.761 8.60143 28.0174 8.60864 27.4205 8.95262L24.843 12.0823L21.0681 10.4633L21.051 10.4521C22.1559 8.29361 22.1187 5.67944 20.8746 3.52056L20.6505 3.13156Z" fill="white"/>
<path d="M16.6836 9.96738C16.6836 11.4455 15.4853 12.6437 14.0072 12.6437C12.5291 12.6437 11.3309 11.4455 11.3309 9.96738C11.3309 8.48927 12.5291 7.29103 14.0072 7.29103C15.4853 7.29103 16.6836 8.48927 16.6836 9.96738Z" fill="white"/>
</svg>
