<svg width="48" height="24" viewBox="0 0 48 24" fill="none" xmlns="http://www.w3.org/2000/svg">
<path d="M0 12C0 5.37258 5.37258 0 12 0H36C42.6274 0 48 5.37258 48 12C48 18.6274 42.6274 24 36 24H12C5.37258 24 0 18.6274 0 12Z" fill="#D6D3D1"/>
<g opacity="0.9">
<path d="M10.184 17.3702C9.54838 17.3702 9.23059 17.0425 9.23059 16.387V7.61297C9.23059 6.95752 9.54838 6.6298 10.184 6.6298C10.8196 6.6298 11.1373 6.95752 11.1373 7.61297V11.1286H16.5448V7.61297C16.5448 6.95752 16.8626 6.6298 17.4982 6.6298C18.1338 6.6298 18.4516 6.95752 18.4516 7.61297V16.387C18.4516 17.0425 18.1338 17.3702 17.4982 17.3702C16.8626 17.3702 16.5448 17.0425 16.5448 16.387V12.7225H11.1373V16.387C11.1373 17.0425 10.8196 17.3702 10.184 17.3702Z" fill="#57534E"/>
<path d="M21.7651 17.251C21.0898 17.251 20.7521 16.9134 20.7521 16.2381V7.76194C20.7521 7.08663 21.0898 6.74897 21.7651 6.74897H25.3403C26.4426 6.74897 27.2967 6.99228 27.9025 7.4789C28.5083 7.95559 28.8112 8.62097 28.8112 9.47504C28.8112 10.0411 28.6672 10.5277 28.3792 10.9349C28.0912 11.3421 27.6939 11.64 27.1875 11.8287C27.7833 11.9975 28.2451 12.2955 28.5728 12.7225C28.9105 13.1396 29.0793 13.6709 29.0793 14.3164C29.0793 15.2499 28.7615 15.9749 28.1259 16.4913C27.5003 16.9978 26.6263 17.251 25.5041 17.251H21.7651ZM22.5844 11.203H25.0126C26.3135 11.203 26.964 10.7015 26.964 9.69849C26.964 8.69545 26.3135 8.19394 25.0126 8.19394H22.5844V11.203ZM22.5844 15.8061H25.2658C26.5767 15.8061 27.2321 15.2797 27.2321 14.227C27.2321 13.1744 26.5767 12.648 25.2658 12.648H22.5844V15.8061Z" fill="#57534E"/>
<path d="M34.6279 17.4C33.9626 17.4 33.3121 17.3255 32.6765 17.1766C32.0508 17.0276 31.5046 16.8041 31.0379 16.5062C30.8094 16.3572 30.6704 16.1735 30.6208 15.955C30.5711 15.7366 30.586 15.533 30.6654 15.3443C30.7548 15.1457 30.8889 15.0116 31.0677 14.9421C31.2563 14.8626 31.4699 14.8974 31.7082 15.0464C32.1452 15.3046 32.607 15.4932 33.0936 15.6124C33.5802 15.7316 34.0917 15.7912 34.6279 15.7912C35.4125 15.7912 35.9835 15.6621 36.341 15.4039C36.6986 15.1357 36.8773 14.7931 36.8773 14.376C36.8773 14.0284 36.7482 13.7553 36.49 13.5567C36.2417 13.3581 35.8097 13.1942 35.194 13.0651L33.5554 12.7225C31.6883 12.3252 30.7548 11.3669 30.7548 9.84745C30.7548 9.19201 30.9286 8.62097 31.2762 8.13435C31.6238 7.64773 32.1054 7.27035 32.7212 7.00221C33.3369 6.73408 34.047 6.60001 34.8514 6.60001C35.4472 6.60001 36.0133 6.67449 36.5496 6.82345C37.0859 6.97242 37.5675 7.1909 37.9946 7.4789C38.1932 7.61794 38.3123 7.79173 38.3521 8.00028C38.3918 8.1989 38.367 8.38759 38.2776 8.56635C38.1882 8.73518 38.0442 8.85435 37.8456 8.92387C37.6569 8.98345 37.4334 8.93876 37.1752 8.7898C36.8078 8.58125 36.4354 8.43228 36.058 8.3429C35.6806 8.25352 35.2734 8.20883 34.8365 8.20883C34.1512 8.20883 33.615 8.35283 33.2277 8.64083C32.8403 8.92883 32.6467 9.30621 32.6467 9.77297C32.6467 10.1305 32.7659 10.4185 33.0042 10.637C33.2426 10.8455 33.6497 11.0094 34.2257 11.1286L35.8494 11.4712C36.8326 11.6797 37.5626 12.0075 38.0392 12.4544C38.5259 12.9012 38.7692 13.4971 38.7692 14.2419C38.7692 14.8676 38.6003 15.4188 38.2627 15.8955C37.925 16.3721 37.4434 16.7446 36.8177 17.0127C36.202 17.2709 35.4721 17.4 34.6279 17.4Z" fill="#57534E"/>
</g>
</svg>
