<svg width="48" height="24" viewBox="0 0 48 24" fill="none" xmlns="http://www.w3.org/2000/svg">
<path d="M0 12C0 5.37258 5.37258 0 12 0H36C42.6274 0 48 5.37258 48 12C48 18.6274 42.6274 24 36 24H12C5.37258 24 0 18.6274 0 12Z" fill="#D6D3D1"/>
<path d="M10.3583 17.3702C9.7227 17.3702 9.40491 17.0425 9.40491 16.387V7.61297C9.40491 6.95752 9.7227 6.6298 10.3583 6.6298C10.9939 6.6298 11.3117 6.95752 11.3117 7.61297V11.1286H16.7191V7.61297C16.7191 6.95752 17.0369 6.6298 17.6725 6.6298C18.3081 6.6298 18.6259 6.95752 18.6259 7.61297V16.387C18.6259 17.0425 18.3081 17.3702 17.6725 17.3702C17.0369 17.3702 16.7191 17.0425 16.7191 16.387V12.7225H11.3117V16.387C11.3117 17.0425 10.9939 17.3702 10.3583 17.3702Z" fill="#57534E"/>
<path d="M25.8125 17.4C24.7201 17.4 23.7816 17.1815 22.9971 16.7446C22.2225 16.2977 21.6266 15.672 21.2095 14.8676C20.7924 14.0532 20.5838 13.0949 20.5838 11.9926C20.5838 10.8902 20.7924 9.93683 21.2095 9.13242C21.6266 8.32801 22.2225 7.70732 22.9971 7.27035C23.7816 6.82345 24.7201 6.60001 25.8125 6.60001C26.3587 6.60001 26.895 6.66952 27.4214 6.80856C27.9477 6.94759 28.4095 7.14621 28.8067 7.40442C29.0649 7.57325 29.2189 7.77683 29.2685 8.01518C29.3182 8.24359 29.2884 8.45711 29.1791 8.65573C29.0699 8.84442 28.906 8.97352 28.6876 9.04304C28.4691 9.10263 28.2258 9.04304 27.9576 8.86428C27.6498 8.66566 27.3171 8.52166 26.9596 8.43228C26.602 8.3429 26.2396 8.29821 25.8721 8.29821C24.8095 8.29821 24.0001 8.62097 23.444 9.26649C22.8878 9.90208 22.6098 10.8108 22.6098 11.9926C22.6098 13.1744 22.8878 14.088 23.444 14.7335C24.0001 15.379 24.8095 15.7018 25.8721 15.7018C26.2495 15.7018 26.6219 15.6571 26.9894 15.5677C27.3568 15.4684 27.7044 15.3195 28.0321 15.1208C28.3003 14.952 28.5386 14.8974 28.7471 14.957C28.9557 15.0166 29.1096 15.1407 29.2089 15.3294C29.3182 15.5081 29.3529 15.7068 29.3132 15.9252C29.2735 16.1437 29.1394 16.3374 28.911 16.5062C28.5138 16.7942 28.0371 17.0177 27.4809 17.1766C26.9347 17.3255 26.3786 17.4 25.8125 17.4Z" fill="#57534E"/>
<path d="M34.4531 17.4C33.7877 17.4 33.1372 17.3255 32.5017 17.1766C31.876 17.0276 31.3298 16.8041 30.863 16.5062C30.6346 16.3572 30.4956 16.1735 30.4459 15.955C30.3963 15.7366 30.4112 15.533 30.4906 15.3443C30.58 15.1457 30.7141 15.0116 30.8928 14.9421C31.0815 14.8626 31.295 14.8974 31.5334 15.0464C31.9704 15.3046 32.4321 15.4932 32.9188 15.6124C33.4054 15.7316 33.9168 15.7912 34.4531 15.7912C35.2377 15.7912 35.8087 15.6621 36.1662 15.4039C36.5237 15.1357 36.7025 14.7931 36.7025 14.376C36.7025 14.0284 36.5734 13.7553 36.3152 13.5567C36.0669 13.3581 35.6349 13.1942 35.0192 13.0651L33.3806 12.7225C31.5135 12.3252 30.58 11.3669 30.58 9.84745C30.58 9.19201 30.7538 8.62097 31.1014 8.13435C31.449 7.64773 31.9306 7.27035 32.5464 7.00221C33.1621 6.73408 33.8721 6.60001 34.6766 6.60001C35.2724 6.60001 35.8385 6.67449 36.3748 6.82345C36.911 6.97242 37.3927 7.1909 37.8197 7.4789C38.0184 7.61794 38.1375 7.79173 38.1772 8.00028C38.217 8.1989 38.1921 8.38759 38.1028 8.56635C38.0134 8.73518 37.8694 8.85435 37.6708 8.92387C37.4821 8.98345 37.2586 8.93876 37.0004 8.7898C36.633 8.58125 36.2606 8.43228 35.8832 8.3429C35.5058 8.25352 35.0986 8.20883 34.6617 8.20883C33.9764 8.20883 33.4401 8.35283 33.0528 8.64083C32.6655 8.92883 32.4719 9.30621 32.4719 9.77297C32.4719 10.1305 32.591 10.4185 32.8294 10.637C33.0677 10.8455 33.4749 11.0094 34.0509 11.1286L35.6746 11.4712C36.6578 11.6797 37.3877 12.0075 37.8644 12.4544C38.351 12.9012 38.5944 13.4971 38.5944 14.2419C38.5944 14.8676 38.4255 15.4188 38.0879 15.8955C37.7502 16.3721 37.2686 16.7446 36.6429 17.0127C36.0272 17.2709 35.2972 17.4 34.4531 17.4Z" fill="#57534E"/>
</svg>
