<svg width="48" height="24" viewBox="0 0 48 24" fill="none" xmlns="http://www.w3.org/2000/svg">
<path d="M0 12C0 5.37258 5.37258 0 12 0H36C42.6274 0 48 5.37258 48 12C48 18.6274 42.6274 24 36 24H12C5.37258 24 0 18.6274 0 12Z" fill="#4C0519"/>
<path d="M8.85918 17.4C8.22007 17.4 7.90051 17.0705 7.90051 16.4114V7.58863C7.90051 6.92955 8.22007 6.60001 8.85918 6.60001C9.49829 6.60001 9.81785 6.92955 9.81785 7.58863V11.1237H15.2553V7.58863C15.2553 6.92955 15.5749 6.60001 16.214 6.60001C16.8531 6.60001 17.1726 6.92955 17.1726 7.58863V16.4114C17.1726 17.0705 16.8531 17.4 16.214 17.4C15.5749 17.4 15.2553 17.0705 15.2553 16.4114V12.7265H9.81785V16.4114C9.81785 17.0705 9.49829 17.4 8.85918 17.4Z" fill="white"/>
<path d="M19.5908 17.4C19.2413 17.4 18.9917 17.2802 18.8419 17.0405C18.6921 16.8008 18.6971 16.5112 18.8569 16.1717L22.8114 7.40888C22.9412 7.11929 23.096 6.91457 23.2757 6.79474C23.4655 6.66492 23.6802 6.60001 23.9198 6.60001C24.1495 6.60001 24.3542 6.66492 24.534 6.79474C24.7237 6.91457 24.8835 7.11929 25.0133 7.40888L28.9828 16.1717C29.1426 16.5212 29.1526 16.8158 29.0128 17.0555C28.8729 17.2852 28.6333 17.4 28.2938 17.4C28.0141 17.4 27.7944 17.3351 27.6347 17.2053C27.4849 17.0655 27.3501 16.8558 27.2302 16.5761L26.4813 14.8386H21.3284L20.5944 16.5761C20.4646 16.8657 20.3298 17.0755 20.19 17.2053C20.0502 17.3351 19.8505 17.4 19.5908 17.4ZM23.8899 8.80195L21.9875 13.3107H25.8222L23.9198 8.80195H23.8899Z" fill="white"/>
<path d="M31.6512 17.2802C30.9721 17.2802 30.6326 16.9406 30.6326 16.2616V7.73843C30.6326 7.05937 30.9721 6.71984 31.6512 6.71984H34.5572C36.3247 6.71984 37.6878 7.17421 38.6465 8.08295C39.6151 8.99168 40.0995 10.2949 40.0995 11.9925C40.0995 13.6802 39.6151 14.9834 38.6465 15.9021C37.6878 16.8208 36.3247 17.2802 34.5572 17.2802H31.6512ZM32.5499 15.6924H34.4373C36.8739 15.6924 38.0923 14.4591 38.0923 11.9925C38.0923 9.53593 36.8739 8.30763 34.4373 8.30763H32.5499V15.6924Z" fill="white"/>
</svg>
