<svg width="48" height="24" viewBox="0 0 48 24" fill="none" xmlns="http://www.w3.org/2000/svg">
<path d="M0 12C0 5.37258 5.37258 0 12 0H36C42.6274 0 48 5.37258 48 12C48 18.6274 42.6274 24 36 24H12C5.37258 24 0 18.6274 0 12Z" fill="#D6D3D1"/>
<path d="M9.58251 17.4C8.9434 17.4 8.62384 17.0705 8.62384 16.4114V7.69349C8.62384 7.04439 8.94839 6.71984 9.59749 6.71984H13.2075C14.3659 6.71984 15.2596 6.99945 15.8887 7.55867C16.5179 8.10791 16.8324 8.88184 16.8324 9.88045C16.8324 10.6694 16.6277 11.3234 16.2183 11.8427C15.8089 12.352 15.2197 12.6965 14.4507 12.8763C14.96 13.0361 15.3795 13.4205 15.709 14.0297L16.8324 16.1118C17.0022 16.4314 17.0322 16.7259 16.9223 16.9956C16.8225 17.2652 16.5678 17.4 16.1584 17.4C15.8887 17.4 15.6691 17.3451 15.4993 17.2352C15.3295 17.1154 15.1797 16.9357 15.0499 16.696L13.537 13.9099C13.3573 13.5703 13.1426 13.3456 12.8929 13.2358C12.6532 13.116 12.3437 13.056 11.9642 13.056H10.5412V16.4114C10.5412 17.0705 10.2216 17.4 9.58251 17.4ZM10.5412 11.633H12.8779C14.276 11.633 14.975 11.0638 14.975 9.92539C14.975 8.79695 14.276 8.23274 12.8779 8.23274H10.5412V11.633Z" fill="#57534E"/>
<path d="M19.8514 17.4C19.2123 17.4 18.8928 17.0705 18.8928 16.4114V7.58863C18.8928 6.92955 19.2123 6.60001 19.8514 6.60001C20.4906 6.60001 20.8101 6.92955 20.8101 7.58863V11.1237H26.2476V7.58863C26.2476 6.92955 26.5671 6.60001 27.2062 6.60001C27.8453 6.60001 28.1649 6.92955 28.1649 7.58863V16.4114C28.1649 17.0705 27.8453 17.4 27.2062 17.4C26.5671 17.4 26.2476 17.0705 26.2476 16.4114V12.7265H20.8101V16.4114C20.8101 17.0705 20.4906 17.4 19.8514 17.4Z" fill="#57534E"/>
<path d="M31.377 17.4C30.7778 17.4 30.4782 17.0904 30.4782 16.4713V7.55867C30.4782 7.24911 30.5531 7.01443 30.7029 6.85465C30.8627 6.68489 31.0674 6.60001 31.3171 6.60001C31.5468 6.60001 31.7165 6.64494 31.8264 6.73482C31.9462 6.81471 32.086 6.95451 32.2458 7.15424L37.5934 14.0896V7.51374C37.5934 6.90458 37.893 6.60001 38.4921 6.60001C39.0813 6.60001 39.3759 6.90458 39.3759 7.51374V16.5013C39.3759 16.7809 39.306 17.0006 39.1662 17.1603C39.0264 17.3201 38.8366 17.4 38.597 17.4C38.3673 17.4 38.1825 17.3551 38.0427 17.2652C37.9129 17.1753 37.7681 17.0305 37.6083 16.8308L32.2608 9.88045V16.4713C32.2608 17.0904 31.9662 17.4 31.377 17.4Z" fill="#57534E"/>
</svg>
