<svg width="48" height="24" viewBox="0 0 48 24" fill="none" xmlns="http://www.w3.org/2000/svg">
<path d="M0 12C0 5.37258 5.37258 0 12 0H36C42.6274 0 48 5.37258 48 12C48 18.6274 42.6274 24 36 24H12C5.37258 24 0 18.6274 0 12Z" fill="#6366F1"/>
<path d="M9.52933 17.2802C8.85027 17.2802 8.51074 16.9406 8.51074 16.2616V7.73843C8.51074 7.05937 8.85027 6.71984 9.52933 6.71984H12.4353C14.2028 6.71984 15.5659 7.17421 16.5246 8.08295C17.4933 8.99168 17.9776 10.2949 17.9776 11.9925C17.9776 13.6802 17.4933 14.9834 16.5246 15.9021C15.5659 16.8208 14.2028 17.2802 12.4353 17.2802H9.52933ZM10.4281 15.6924H12.3155C14.7521 15.6924 15.9704 14.4591 15.9704 11.9925C15.9704 9.53593 14.7521 8.30763 12.3155 8.30763H10.4281V15.6924Z" fill="white"/>
<path d="M20.8194 17.4C20.2203 17.4 19.9207 17.0904 19.9207 16.4713V7.55867C19.9207 7.24911 19.9956 7.01443 20.1454 6.85465C20.3051 6.68489 20.5099 6.60001 20.7595 6.60001C20.9892 6.60001 21.159 6.64494 21.2688 6.73482C21.3886 6.81471 21.5284 6.95451 21.6882 7.15424L27.0358 14.0896V7.51374C27.0358 6.90458 27.3354 6.60001 27.9345 6.60001C28.5237 6.60001 28.8183 6.90458 28.8183 7.51374V16.5013C28.8183 16.7809 28.7484 17.0006 28.6086 17.1603C28.4688 17.3201 28.2791 17.4 28.0394 17.4C27.8097 17.4 27.625 17.3551 27.4852 17.2652C27.3553 17.1753 27.2105 17.0305 27.0508 16.8308L21.7032 9.88045V16.4713C21.7032 17.0904 21.4086 17.4 20.8194 17.4Z" fill="white"/>
<path d="M32.0845 17.4C31.4454 17.4 31.1258 17.0705 31.1258 16.4114V7.69349C31.1258 7.04439 31.4504 6.71984 32.0995 6.71984H35.7094C36.8678 6.71984 37.7616 6.99945 38.3907 7.55867C39.0198 8.10791 39.3344 8.88184 39.3344 9.88045C39.3344 10.6694 39.1297 11.3234 38.7203 11.8427C38.3108 12.352 37.7217 12.6965 36.9527 12.8763C37.462 13.0361 37.8814 13.4205 38.211 14.0297L39.3344 16.1118C39.5042 16.4314 39.5341 16.7259 39.4243 16.9956C39.3244 17.2652 39.0698 17.4 38.6603 17.4C38.3907 17.4 38.171 17.3451 38.0013 17.2352C37.8315 17.1154 37.6817 16.9357 37.5519 16.696L36.039 13.9099C35.8592 13.5703 35.6445 13.3456 35.3949 13.2358C35.1552 13.116 34.8456 13.056 34.4662 13.056H33.0431V16.4114C33.0431 17.0705 32.7236 17.4 32.0845 17.4ZM33.0431 11.633H35.3799C36.778 11.633 37.477 11.0638 37.477 9.92539C37.477 8.79695 36.778 8.23274 35.3799 8.23274H33.0431V11.633Z" fill="white"/>
</svg>
