<svg width="48" height="24" viewBox="0 0 48 24" fill="none" xmlns="http://www.w3.org/2000/svg">
<path d="M0 12C0 5.37258 5.37258 0 12 0H36C42.6274 0 48 5.37258 48 12C48 18.6274 42.6274 24 36 24H12C5.37258 24 0 18.6274 0 12Z" fill="#FCA5A5"/>
<path d="M19.4967 17.4C18.4043 17.4 17.4658 17.1815 16.6812 16.7446C15.9066 16.2977 15.3108 15.672 14.8937 14.8676C14.4766 14.0532 14.268 13.0949 14.268 11.9926C14.268 10.8902 14.4766 9.93683 14.8937 9.13242C15.3108 8.32801 15.9066 7.70732 16.6812 7.27035C17.4658 6.82345 18.4043 6.60001 19.4967 6.60001C20.0429 6.60001 20.5792 6.66952 21.1055 6.80856C21.6319 6.94759 22.0937 7.14621 22.4909 7.40442C22.7491 7.57325 22.903 7.77683 22.9527 8.01518C23.0023 8.24359 22.9726 8.45711 22.8633 8.65573C22.7541 8.84442 22.5902 8.97352 22.3717 9.04304C22.1532 9.10263 21.9099 9.04304 21.6418 8.86428C21.3339 8.66566 21.0012 8.52166 20.6437 8.43228C20.2862 8.3429 19.9237 8.29821 19.5563 8.29821C18.4937 8.29821 17.6843 8.62097 17.1281 9.26649C16.572 9.90208 16.2939 10.8108 16.2939 11.9926C16.2939 13.1744 16.572 14.088 17.1281 14.7335C17.6843 15.379 18.4937 15.7018 19.5563 15.7018C19.9337 15.7018 20.3061 15.6571 20.6735 15.5677C21.041 15.4684 21.3886 15.3195 21.7163 15.1208C21.9844 14.952 22.2228 14.8974 22.4313 14.957C22.6399 15.0166 22.7938 15.1407 22.8931 15.3294C23.0023 15.5081 23.0371 15.7068 22.9974 15.9252C22.9577 16.1437 22.8236 16.3374 22.5952 16.5062C22.1979 16.7942 21.7212 17.0177 21.1651 17.1766C20.6189 17.3255 20.0628 17.4 19.4967 17.4Z" fill="white"/>
<path d="M28.6448 17.3702C28.1383 17.3702 27.7758 17.1219 27.5574 16.6254L23.6694 7.89601C23.5105 7.51863 23.5154 7.21573 23.6843 6.98732C23.863 6.74897 24.1212 6.6298 24.4589 6.6298C24.7469 6.6298 24.9604 6.69435 25.0994 6.82345C25.2484 6.94263 25.3725 7.12635 25.4718 7.37463L28.6746 14.808L31.8774 7.35973C31.9866 7.12139 32.1157 6.94263 32.2647 6.82345C32.4136 6.69435 32.6222 6.6298 32.8903 6.6298C33.2081 6.6298 33.4465 6.74897 33.6054 6.98732C33.7742 7.22566 33.7742 7.52856 33.6054 7.89601L29.7174 16.6254C29.6081 16.8737 29.4691 17.0624 29.3003 17.1915C29.1414 17.3106 28.9229 17.3702 28.6448 17.3702Z" fill="white"/>
</svg>
