<svg width="48" height="24" viewBox="0 0 48 24" fill="none" xmlns="http://www.w3.org/2000/svg">
<path d="M0 12C0 5.37258 5.37258 0 12 0H36C42.6274 0 48 5.37258 48 12C48 18.6274 42.6274 24 36 24H12C5.37258 24 0 18.6274 0 12Z" fill="#B91C1C"/>
<path d="M10.8343 17.4C10.188 17.4 9.86487 17.0668 9.86487 16.4003V7.58458C9.86487 6.9282 10.1931 6.60001 10.8494 6.60001H14.4999C15.6713 6.60001 16.5751 6.89285 17.2113 7.47855C17.8475 8.06424 18.1656 8.88219 18.1656 9.9324C18.1656 10.9826 17.8475 11.8056 17.2113 12.4014C16.5751 12.9871 15.6713 13.28 14.4999 13.28H11.8037V16.4003C11.8037 17.0668 11.4806 17.4 10.8343 17.4ZM11.8037 11.7501H14.197C15.5905 11.7501 16.2873 11.1442 16.2873 9.9324C16.2873 8.73072 15.5905 8.12988 14.197 8.12988H11.8037V11.7501Z" fill="white"/>
<path d="M20.7155 17.4C20.0692 17.4 19.7461 17.0668 19.7461 16.4003V7.58458C19.7461 6.9282 20.0743 6.60001 20.7307 6.60001H24.3812C25.5525 6.60001 26.4563 6.88276 27.0925 7.44825C27.7287 8.00365 28.0468 8.78626 28.0468 9.79608C28.0468 10.5938 27.8398 11.2553 27.4258 11.7804C27.0117 12.2954 26.4159 12.6438 25.6384 12.8255C26.1534 12.9871 26.5775 13.3759 26.9107 13.9919L28.0468 16.0973C28.2185 16.4205 28.2488 16.7184 28.1377 16.991C28.0367 17.2637 27.7792 17.4 27.3652 17.4C27.0925 17.4 26.8704 17.3445 26.6987 17.2334C26.527 17.1122 26.3755 16.9304 26.2443 16.6881L24.7144 13.8707C24.5326 13.5274 24.3155 13.3001 24.0631 13.1891C23.8207 13.0679 23.5077 13.0073 23.1239 13.0073H21.6849V16.4003C21.6849 17.0668 21.3618 17.4 20.7155 17.4ZM21.6849 11.5683H24.0479C25.4617 11.5683 26.1685 10.9927 26.1685 9.84152C26.1685 8.70043 25.4617 8.12988 24.0479 8.12988H21.6849V11.5683Z" fill="white"/>
<path d="M33.3789 17.4C32.7326 17.4 32.4094 17.0668 32.4094 16.4003V8.22076H29.4557C28.9003 8.22076 28.6226 7.94811 28.6226 7.40281C28.6226 6.86761 28.9003 6.60001 29.4557 6.60001H37.302C37.8574 6.60001 38.1351 6.86761 38.1351 7.40281C38.1351 7.94811 37.8574 8.22076 37.302 8.22076H34.3483V16.4003C34.3483 17.0668 34.0251 17.4 33.3789 17.4Z" fill="white"/>
</svg>
