<svg width="48" height="24" viewBox="0 0 48 24" fill="none" xmlns="http://www.w3.org/2000/svg">
<path d="M0 12C0 5.37258 5.37258 0 12 0H36C42.6274 0 48 5.37258 48 12C48 18.6274 42.6274 24 36 24H12C5.37258 24 0 18.6274 0 12Z" fill="#F97316"/>
<path d="M9.44036 17.3702C8.86435 17.3702 8.57635 17.0723 8.57635 16.4764V7.52359C8.57635 6.92773 8.87429 6.6298 9.47015 6.6298C9.71842 6.6298 9.91208 6.67945 10.0511 6.77877C10.2001 6.86814 10.3341 7.02704 10.4533 7.25545L13.8944 13.6163L17.3355 7.25545C17.4547 7.02704 17.5838 6.86814 17.7228 6.77877C17.8619 6.67945 18.0555 6.6298 18.3038 6.6298C18.8798 6.6298 19.1678 6.92773 19.1678 7.52359V16.4764C19.1678 17.0723 18.8798 17.3702 18.3038 17.3702C17.7278 17.3702 17.4398 17.0723 17.4398 16.4764V10.1752L14.6393 15.2847C14.5399 15.4535 14.4357 15.5777 14.3264 15.6571C14.2172 15.7366 14.0682 15.7763 13.8795 15.7763C13.6908 15.7763 13.5369 15.7366 13.4177 15.6571C13.2986 15.5677 13.1943 15.4436 13.1049 15.2847L10.3044 10.205V16.4764C10.3044 17.0723 10.0164 17.3702 9.44036 17.3702Z" fill="white"/>
<path d="M22.4326 17.3702C21.797 17.3702 21.4792 17.0425 21.4792 16.387V7.71725C21.4792 7.07173 21.802 6.74897 22.4475 6.74897H26.0376C27.1896 6.74897 28.0784 7.02704 28.704 7.58318C29.3297 8.12939 29.6425 8.89904 29.6425 9.89214C29.6425 10.6767 29.4389 11.3272 29.0318 11.8436C28.6246 12.3501 28.0387 12.6927 27.274 12.8715C27.7805 13.0304 28.1976 13.4127 28.5253 14.0185L29.6425 16.0891C29.8113 16.4069 29.8411 16.6999 29.7319 16.968C29.6326 17.2361 29.3794 17.3702 28.9722 17.3702C28.704 17.3702 28.4856 17.3156 28.3167 17.2064C28.1479 17.0872 27.9989 16.9084 27.8698 16.6701L26.3653 13.8993C26.1865 13.5617 25.973 13.3382 25.7247 13.229C25.4864 13.1098 25.1785 13.0502 24.8011 13.0502H23.386V16.387C23.386 17.0425 23.0682 17.3702 22.4326 17.3702ZM23.386 11.635H25.7098C27.1002 11.635 27.7954 11.069 27.7954 9.93683C27.7954 8.81463 27.1002 8.25352 25.7098 8.25352H23.386V11.635Z" fill="white"/>
<path d="M35.2823 17.4C34.6169 17.4 33.9664 17.3255 33.3308 17.1766C32.7052 17.0276 32.159 16.8041 31.6922 16.5062C31.4638 16.3572 31.3247 16.1735 31.2751 15.955C31.2254 15.7366 31.2403 15.533 31.3198 15.3443C31.4092 15.1457 31.5432 15.0116 31.722 14.9421C31.9107 14.8626 32.1242 14.8974 32.3625 15.0464C32.7995 15.3046 33.2613 15.4932 33.7479 15.6124C34.2345 15.7316 34.746 15.7912 35.2823 15.7912C36.0668 15.7912 36.6378 15.6621 36.9954 15.4039C37.3529 15.1357 37.5316 14.7931 37.5316 14.376C37.5316 14.0284 37.4025 13.7553 37.1443 13.5567C36.8961 13.3581 36.4641 13.1942 35.8483 13.0651L34.2097 12.7225C32.3427 12.3252 31.4092 11.3669 31.4092 9.84745C31.4092 9.19201 31.583 8.62097 31.9305 8.13435C32.2781 7.64773 32.7598 7.27035 33.3755 7.00221C33.9912 6.73408 34.7013 6.60001 35.5057 6.60001C36.1016 6.60001 36.6676 6.67449 37.2039 6.82345C37.7402 6.97242 38.2218 7.1909 38.6489 7.4789C38.8475 7.61794 38.9667 7.79173 39.0064 8.00028C39.0461 8.1989 39.0213 8.38759 38.9319 8.56635C38.8425 8.73518 38.6985 8.85435 38.4999 8.92387C38.3112 8.98345 38.0878 8.93876 37.8296 8.7898C37.4621 8.58125 37.0897 8.43228 36.7123 8.3429C36.335 8.25352 35.9278 8.20883 35.4908 8.20883C34.8056 8.20883 34.2693 8.35283 33.882 8.64083C33.4947 8.92883 33.301 9.30621 33.301 9.77297C33.301 10.1305 33.4202 10.4185 33.6585 10.637C33.8969 10.8455 34.3041 11.0094 34.8801 11.1286L36.5038 11.4712C37.487 11.6797 38.2169 12.0075 38.6936 12.4544C39.1802 12.9012 39.4235 13.4971 39.4235 14.2419C39.4235 14.8676 39.2547 15.4188 38.917 15.8955C38.5794 16.3721 38.0977 16.7446 37.4721 17.0127C36.8563 17.2709 36.1264 17.4 35.2823 17.4Z" fill="white"/>
</svg>
