<svg width="49" height="25" viewBox="0 0 49 25" fill="none" xmlns="http://www.w3.org/2000/svg">
<path d="M0 12C0 5.37258 5.37258 0 12 0H36C42.6274 0 48 5.37258 48 12C48 18.6274 42.6274 24 36 24H12C5.37258 24 0 18.6274 0 12Z" fill="#EF4444"/>
<path d="M45.3288 23.178H34.9388C34.2878 23.178 33.7047 22.8495 33.3791 22.2992C33.0535 21.7488 33.0534 21.0917 33.3787 20.5412L38.5737 11.7509C38.8992 11.2002 39.4824 10.8713 40.1338 10.8713C40.7852 10.8713 41.3684 11.2002 41.6939 11.7509L46.8889 20.5412C47.2143 21.0917 47.2141 21.7488 46.8885 22.2992C46.5629 22.8495 45.9798 23.178 45.3288 23.178Z" fill="white"/>
<path d="M40.1338 11.7505C39.8304 11.7505 39.527 11.8971 39.3537 12.1903L34.1588 20.9805C33.8124 21.5666 34.2457 22.2989 34.9388 22.2989H45.3288C46.0219 22.2989 46.4552 21.5666 46.1089 20.9805L40.9139 12.1903C40.7406 11.8971 40.4372 11.7505 40.1338 11.7505ZM40.1338 9.99222C41.0963 9.99222 41.993 10.4978 42.474 11.3116L47.669 20.1018C48.1497 20.9153 48.1494 21.9257 47.6683 22.7389C47.1872 23.552 46.2908 24.0572 45.3288 24.0572H34.9388C33.9769 24.0572 33.0804 23.552 32.5993 22.7389C32.1182 21.9257 32.1179 20.9153 32.5986 20.1019L37.7936 11.3116C38.2746 10.4978 39.1713 9.99222 40.1338 9.99222Z" fill="#EF4444"/>
<path d="M40.1779 19.0265C40.6277 19.0265 40.9915 18.6711 40.9915 18.2547V14.0987C40.9915 13.6602 40.6277 13.3043 40.1779 13.3043C39.7282 13.3043 39.3643 13.6602 39.3643 14.0987V18.2102C39.3643 18.6716 39.7282 19.0265 40.1779 19.0265ZM40.1779 19.8335C39.6163 19.8335 39.1609 20.278 39.1609 20.8262C39.1609 21.3744 39.6163 21.7966 40.1779 21.7966C40.7395 21.7966 41.1949 21.3523 41.1949 20.8262C41.1949 20.3 40.7395 19.8335 40.1779 19.8335Z" fill="#EF4444"/>
<path fill-rule="evenodd" clip-rule="evenodd" d="M26.1419 3.80801C26.3219 3.70405 26.5051 3.61044 26.6908 3.527C29.4755 2.27544 32.8108 3.31182 34.3702 6.01277C35.875 8.61918 35.2105 11.8828 32.9369 13.7128C32.6974 13.9056 32.44 14.0825 32.1654 14.2411L21.8581 20.192C18.9771 21.8553 15.2931 20.8682 13.6298 17.9872C11.9664 15.1062 12.9535 11.4223 15.8345 9.75893L26.1419 3.80801ZM26.393 15.5865L22.0905 8.13433L16.6951 11.2494C14.6372 12.4375 13.9321 15.0689 15.1202 17.1267C16.3083 19.1846 18.9397 19.8897 20.9976 18.7016L26.393 15.5865Z" fill="white"/>
</svg>
