<svg width="48" height="24" viewBox="0 0 48 24" fill="none" xmlns="http://www.w3.org/2000/svg">
<path d="M0 12C0 5.37258 5.37258 0 12 0H36C42.6274 0 48 5.37258 48 12C48 18.6274 42.6274 24 36 24H12C5.37258 24 0 18.6274 0 12Z" fill="#D6D3D1"/>
<path d="M33.3222 6.09719L31.0722 3.8472C30.7427 3.51761 30.2088 3.51761 29.879 3.8472C29.5493 4.17679 29.5495 4.71063 29.879 5.0404L30.4394 5.5688L29.1 6.90684L27.1653 4.9722C26.8358 4.64261 26.3019 4.64261 25.9721 4.9722C25.6745 5.26986 25.6602 5.727 25.9002 6.05711L31.142 11.2989C31.2902 11.4082 31.459 11.475 31.6312 11.475C31.8471 11.475 32.063 11.3926 32.2278 11.2278C32.5574 10.8983 32.5574 10.3644 32.2278 10.0346L30.2918 8.10004L31.6312 6.762L32.1596 7.29039C32.3238 7.45668 32.5418 7.53754 32.7562 7.53754C32.9707 7.53754 33.1879 7.45513 33.3528 7.29036C33.6808 6.96063 33.6808 6.42696 33.3222 6.09719ZM22.9406 9.01762L24.9994 11.0764C25.2191 11.2961 25.2191 11.6522 24.9994 11.8716C24.8883 11.9813 24.7441 12.0375 24.6 12.0375C24.4559 12.0375 24.3117 11.9813 24.2027 11.8723L22.1426 9.81566L20.6906 11.2676L22.7494 13.3264C22.9691 13.5461 22.9691 13.9022 22.7494 14.1216C22.6383 14.2313 22.4941 14.2875 22.35 14.2875C22.2059 14.2875 22.0617 14.2313 21.9527 14.1223L19.8926 12.0657L18.5092 13.4473C18.087 13.8692 17.85 14.4422 17.85 15.0399V18.1575L15.8472 20.1604C15.5176 20.49 15.5176 21.0238 15.8472 21.3536C16.012 21.5191 16.2279 21.6 16.4438 21.6C16.6596 21.6 16.8755 21.5176 17.0404 21.3528L19.0432 19.35H22.1612C22.7578 19.35 23.3302 19.1129 23.7524 18.6908L30.3477 12.0955L25.1059 6.85375L22.9406 9.01762Z" fill="white"/>
<rect x="30" y="12" width="18" height="12" rx="1.2" fill="#D6D3D1"/>
<path d="M35.714 21.48C35.01 21.48 34.4052 21.3392 33.8996 21.0576C33.4004 20.7696 33.0164 20.3664 32.7476 19.848C32.4788 19.3232 32.3444 18.7056 32.3444 17.9952C32.3444 17.2848 32.4788 16.6704 32.7476 16.152C33.0164 15.6336 33.4004 15.2336 33.8996 14.952C34.4052 14.664 35.01 14.52 35.714 14.52C36.066 14.52 36.4116 14.5648 36.7508 14.6544C37.09 14.744 37.3876 14.872 37.6436 15.0384C37.81 15.1472 37.9092 15.2784 37.9412 15.432C37.9732 15.5792 37.954 15.7168 37.8836 15.8448C37.8132 15.9664 37.7076 16.0496 37.5668 16.0944C37.426 16.1328 37.2692 16.0944 37.0964 15.9792C36.898 15.8512 36.6836 15.7584 36.4532 15.7008C36.2228 15.6432 35.9892 15.6144 35.7524 15.6144C35.0676 15.6144 34.546 15.8224 34.1876 16.2384C33.8292 16.648 33.65 17.2336 33.65 17.9952C33.65 18.7568 33.8292 19.3456 34.1876 19.7616C34.546 20.1776 35.0676 20.3856 35.7524 20.3856C35.9956 20.3856 36.2356 20.3568 36.4724 20.2992C36.7092 20.2352 36.9332 20.1392 37.1444 20.0112C37.3172 19.9024 37.4708 19.8672 37.6052 19.9056C37.7396 19.944 37.8388 20.024 37.9028 20.1456C37.9732 20.2608 37.9956 20.3888 37.97 20.5296C37.9444 20.6704 37.858 20.7952 37.7108 20.904C37.4548 21.0896 37.1476 21.2336 36.7892 21.336C36.4372 21.432 36.0788 21.48 35.714 21.48Z" fill="white"/>
<path d="M42.3774 21.4608C42.051 21.4608 41.8174 21.3008 41.6766 20.9808L39.171 15.3552C39.0686 15.112 39.0718 14.9168 39.1806 14.7696C39.2958 14.616 39.4622 14.5392 39.6798 14.5392C39.8654 14.5392 40.003 14.5808 40.0926 14.664C40.1886 14.7408 40.2686 14.8592 40.3326 15.0192L42.3966 19.8096L44.4606 15.0096C44.531 14.856 44.6142 14.7408 44.7102 14.664C44.8062 14.5808 44.9406 14.5392 45.1134 14.5392C45.3182 14.5392 45.4718 14.616 45.5742 14.7696C45.683 14.9232 45.683 15.1184 45.5742 15.3552L43.0686 20.9808C42.9982 21.1408 42.9086 21.2624 42.7998 21.3456C42.6974 21.4224 42.5566 21.4608 42.3774 21.4608Z" fill="white"/>
</svg>
