<svg width="48" height="24" viewBox="0 0 48 24" fill="none" xmlns="http://www.w3.org/2000/svg">
<path d="M0 12C0 5.37258 5.37258 0 12 0H36C42.6274 0 48 5.37258 48 12C48 18.6274 42.6274 24 36 24H12C5.37258 24 0 18.6274 0 12Z" fill="#111827"/>
<path d="M23.919 8.23007C24.0279 8.67296 24.0315 9.13694 23.9366 9.58334C23.8381 10.0016 23.6378 10.4515 23.3566 10.8101C22.8469 11.39 22.2107 11.7591 21.4409 11.9349V19.594C21.4409 19.9666 21.3249 20.3251 21.0613 20.5887C20.7977 20.8524 20.4392 21 20.0349 21C19.694 21 19.3362 20.8524 19.0722 20.5887C18.8086 20.3251 18.6289 19.9666 18.6289 19.594V11.9349C17.921 11.7943 17.2532 11.4006 16.773 10.8206C16.488 10.4621 16.289 10.0438 16.1915 9.59389C16.094 9.14397 16.1006 8.67999 16.2107 8.23359L17.2725 3.44091C17.3024 3.30551 17.3815 3.18597 17.4943 3.10523C17.6068 3.02446 17.7456 2.98819 17.8834 3.00339C18.0216 3.01842 18.1495 3.08425 18.2423 3.18815C18.3351 3.29202 18.3857 3.4265 18.385 3.56569V8.62727H18.9956L19.5963 3.42193C19.6103 3.30682 19.6659 3.20087 19.7537 3.124C19.8381 3.04716 19.9506 3.00471 20.0349 3.00471C20.1826 3.00471 20.295 3.04716 20.3794 3.124C20.4673 3.20087 20.4919 3.30682 20.5376 3.42193L21.1386 8.62727H21.7221V3.56569C21.7221 3.42755 21.803 3.29392 21.8627 3.19019C21.9857 3.08646 22.1123 3.01996 22.2494 3.00339C22.3865 2.98832 22.4954 3.02505 22.6395 3.1065C22.752 3.18794 22.8293 3.30829 22.861 3.44443L23.919 8.23007ZM31.8769 19.594C31.8769 19.9666 31.7293 20.3251 31.4656 20.5887C31.202 20.8524 30.8435 21 30.4709 21C30.0983 21 29.7398 20.8524 29.4762 20.5887C29.2125 20.3251 29.0649 19.9666 29.0649 19.594V15.376H28.4744C28.1791 15.376 27.8839 15.3163 27.6097 15.2038C27.3391 15.0878 27.0895 14.9226 26.8786 14.7117C26.6712 14.5008 26.506 14.2512 26.3619 13.9771C26.281 13.7029 26.2248 13.4076 26.2248 13.1124L26.2213 9.11233C26.2529 7.81531 26.6431 6.5464 27.3707 5.47363C28.0983 4.3991 29.1282 3.56745 30.3338 3.08551C30.4744 3.01739 30.6888 2.99204 30.8716 3.0117C31.0544 3.03135 31.2301 3.09539 31.3813 3.19824C31.5324 3.30109 31.659 3.43951 31.7433 3.6019C31.8312 3.76394 31.8453 3.94461 31.8769 4.12809V19.594Z" fill="white"/>
<path fill-rule="evenodd" clip-rule="evenodd" d="M36.6206 2.83057C37.0102 3.36674 36.9074 4.10549 36.3911 4.48061L13.0195 21.4611C12.5032 21.8362 11.7689 21.7056 11.3793 21.1695C10.9898 20.6333 11.0925 19.8946 11.6088 19.5194L34.9804 2.53897C35.4968 2.16385 36.2311 2.2944 36.6206 2.83057Z" fill="#EF4444"/>
</svg>
