<svg width="48" height="24" viewBox="0 0 48 24" fill="none" xmlns="http://www.w3.org/2000/svg">
<path d="M0 12C0 5.37258 5.37258 0 12 0H36C42.6274 0 48 5.37258 48 12C48 18.6274 42.6274 24 36 24H12C5.37258 24 0 18.6274 0 12Z" fill="#22D3EE"/>
<path fill-rule="evenodd" clip-rule="evenodd" d="M26.1419 3.80801C26.3219 3.70405 26.5051 3.61044 26.6908 3.527C29.4755 2.27544 32.8108 3.31182 34.3702 6.01277C35.875 8.61918 35.2105 11.8828 32.9369 13.7128C32.6974 13.9056 32.44 14.0825 32.1654 14.2411L21.8581 20.192C18.9771 21.8553 15.2931 20.8682 13.6298 17.9872C11.9664 15.1062 12.9535 11.4223 15.8345 9.75893L26.1419 3.80801ZM26.393 15.5865L22.0905 8.13433L16.6951 11.2494C14.6372 12.4375 13.9321 15.0689 15.1202 17.1267C16.3083 19.1846 18.9397 19.8897 20.9976 18.7016L26.393 15.5865Z" fill="white"/>
<circle cx="39.6" cy="15.6" r="7.65" fill="white" stroke="#22D3EE" stroke-width="1.5"/>
<path d="M39.6 15.6003C40.76 15.6003 41.7001 14.66 41.7001 13.5001C41.7001 12.3403 40.76 11.4 39.6 11.4C38.44 11.4 37.4999 12.3403 37.4999 13.5001C37.4999 14.66 38.44 15.6003 39.6 15.6003ZM40.4319 16.3878H38.7682C37.1982 16.3878 35.9248 17.661 35.9248 19.2312C35.9248 19.5452 36.1794 19.8 36.4935 19.8H42.7069C43.0209 19.8005 43.2752 19.5462 43.2752 19.2312C43.2752 17.661 42.002 16.3878 40.4319 16.3878Z" fill="#22D3EE"/>
</svg>
