<svg width="48" height="24" viewBox="0 0 48 24" fill="none" xmlns="http://www.w3.org/2000/svg">
<path d="M0 12C0 5.37258 5.37258 0 12 0H36C42.6274 0 48 5.37258 48 12C48 18.6274 42.6274 24 36 24H12C5.37258 24 0 18.6274 0 12Z" fill="#D6D3D1"/>
<path d="M19.8758 12.1772L14.3762 17.6769C14.1631 17.8934 13.8812 18 13.5994 18C13.3175 18 13.0363 17.8926 12.8218 17.6777C12.3922 17.2481 12.3922 16.552 12.8218 16.1224L16.4454 12.5003H5.89986C5.29249 12.5003 4.79999 12.0088 4.79999 11.4004C4.79999 10.792 5.29249 10.3005 5.89986 10.3005H16.4454L12.8225 6.6776C12.3929 6.24794 12.3929 5.55189 12.8225 5.12223C13.2522 4.69257 13.9482 4.69257 14.3779 5.12223L19.8775 10.6219C20.3055 11.0533 20.3055 11.7476 19.8758 12.1772Z" fill="white"/>
<circle cx="33.6" cy="12" r="9.6" fill="white"/>
<path d="M33.5998 13.4787C34.4392 13.4787 35.1202 12.7977 35.1202 11.9584C35.1202 11.119 34.4392 10.438 33.5998 10.438C32.7605 10.438 32.0795 11.1475 32.0795 11.9584C32.0795 12.7692 32.7605 13.4787 33.5998 13.4787ZM32.2569 9.83303L30.0112 6.24466C29.6881 5.72837 28.9722 5.59851 28.5082 5.99254C27.0848 7.19932 26.095 8.90086 25.8105 10.8323C25.7214 11.4389 26.2093 11.9805 26.8219 11.9805H31.0599C31.0596 11.0747 31.541 10.286 32.2569 9.83303ZM38.693 5.99254C38.2284 5.59851 37.5145 5.72844 37.1914 6.24482L34.9428 9.83303C35.6587 10.286 36.1401 11.0747 36.1401 11.9805H40.3781C40.9907 11.9805 41.4785 11.438 41.3895 10.832C41.1035 8.90181 40.1152 7.19774 38.693 5.99254ZM34.9428 14.1249C34.5532 14.3688 34.094 14.5176 33.5998 14.5176C33.1057 14.5176 32.6465 14.3687 32.2569 14.1249L30.0112 17.7167C29.69 18.2302 29.8794 18.9267 30.4331 19.1721C31.4017 19.6013 32.4722 19.8421 33.5998 19.8421C34.7274 19.8421 35.7987 19.601 36.7673 19.1712C37.3209 18.9257 37.5103 18.2292 37.1892 17.7158L34.9428 14.1249Z" fill="#D6D3D1"/>
</svg>
