<svg width="48" height="24" viewBox="0 0 48 24" fill="none" xmlns="http://www.w3.org/2000/svg">
<path d="M0 12C0 5.37258 5.37258 0 12 0H36C42.6274 0 48 5.37258 48 12C48 18.6274 42.6274 24 36 24H12C5.37258 24 0 18.6274 0 12Z" fill="#D6D3D1"/>
<path d="M27.7565 17.3364C26.7623 17.3364 25.8899 17.1171 25.1393 16.6785C24.3985 16.2398 23.8235 15.6258 23.4141 14.8362C23.0047 14.0369 22.8 13.1012 22.8 12.029C22.8 10.9471 23.0047 10.0113 23.4141 9.22179C23.8235 8.43226 24.3985 7.82306 25.1393 7.39418C25.8801 6.95555 26.7525 6.73624 27.7565 6.73624C28.7604 6.73624 29.6328 6.95555 30.3736 7.39418C31.1144 7.82306 31.6895 8.43226 32.0989 9.22179C32.5083 10.0113 32.713 10.9422 32.713 12.0144C32.713 13.0963 32.5083 14.0369 32.0989 14.8362C31.6895 15.6258 31.1144 16.2398 30.3736 16.6785C29.6328 17.1171 28.7604 17.3364 27.7565 17.3364ZM27.7565 15.7281C28.702 15.7281 29.4379 15.4016 29.9642 14.7485C30.4906 14.0954 30.7538 13.1889 30.7538 12.029C30.7538 10.8593 30.4906 9.95284 29.9642 9.30952C29.4476 8.6662 28.7117 8.34454 27.7565 8.34454C26.811 8.34454 26.0751 8.6662 25.5487 9.30952C25.0224 9.95284 24.7592 10.8593 24.7592 12.029C24.7592 13.1889 25.0224 14.0954 25.5487 14.7485C26.0751 15.4016 26.811 15.7281 27.7565 15.7281Z" fill="white"/>
<path d="M37.409 17.3072C36.7852 17.3072 36.4733 16.9855 36.4733 16.3422V8.44688H33.6222C33.0861 8.44688 32.8181 8.18371 32.8181 7.65735C32.8181 7.14075 33.0861 6.88245 33.6222 6.88245H41.1958C41.7319 6.88245 42 7.14075 42 7.65735C42 8.18371 41.7319 8.44688 41.1958 8.44688H38.3448V16.3422C38.3448 16.9855 38.0328 17.3072 37.409 17.3072Z" fill="white"/>
<path d="M19.8758 12.1772L14.3762 17.6769C14.1631 17.8934 13.8812 18 13.5994 18C13.3175 18 13.0363 17.8926 12.8218 17.6777C12.3922 17.2481 12.3922 16.552 12.8218 16.1224L16.4454 12.5003H5.89986C5.29249 12.5003 4.79999 12.0088 4.79999 11.4004C4.79999 10.792 5.29249 10.3005 5.89986 10.3005H16.4454L12.8225 6.6776C12.3929 6.24794 12.3929 5.55189 12.8225 5.12223C13.2522 4.69257 13.9482 4.69257 14.3779 5.12223L19.8775 10.6219C20.3055 11.0533 20.3055 11.7476 19.8758 12.1772Z" fill="white"/>
</svg>
