<svg width="48" height="24" viewBox="0 0 48 24" fill="none" xmlns="http://www.w3.org/2000/svg">
<path d="M0 12C0 5.37258 5.37258 0 12 0H36C42.6274 0 48 5.37258 48 12C48 18.6274 42.6274 24 36 24H12C5.37258 24 0 18.6274 0 12Z" fill="#D6D3D1"/>
<path fill-rule="evenodd" clip-rule="evenodd" d="M26.1419 3.80801C26.3219 3.70405 26.5051 3.61044 26.6908 3.527C29.4755 2.27544 32.8108 3.31182 34.3702 6.01277C35.875 8.61918 35.2105 11.8828 32.9369 13.7128C32.6974 13.9056 32.44 14.0825 32.1654 14.2411L21.8581 20.192C18.9771 21.8553 15.2931 20.8682 13.6298 17.9872C11.9664 15.1062 12.9535 11.4223 15.8345 9.75893L26.1419 3.80801ZM26.393 15.5865L22.0905 8.13433L16.6951 11.2494C14.6372 12.4375 13.9321 15.0689 15.1202 17.1267C16.3083 19.1846 18.9397 19.8897 20.9976 18.7016L26.393 15.5865Z" fill="white"/>
<circle cx="39.6" cy="15.6" r="7.5" fill="white" stroke="#D6D3D1" stroke-width="1.8"/>
<path d="M39.6003 13.5941C38.4938 13.5941 37.5934 14.4932 37.5934 15.6C37.5934 16.7067 38.4935 17.6059 39.6003 17.6059C40.7066 17.6056 41.6061 16.7066 41.6061 15.6C41.6061 14.4934 40.7066 13.5944 39.6003 13.5941ZM36.6481 13.0707C36.6475 13.0711 36.6462 13.071 36.6452 13.0717C36.6463 13.0708 36.6474 13.0703 36.6481 13.0697C36.6492 13.0689 36.6501 13.0688 36.6501 13.0688C36.65 13.0688 36.6496 13.0698 36.6481 13.0707ZM39.0749 18.3539L38.6745 18.2123C38.3509 18.0982 38.0549 17.9262 37.7985 17.7074L37.4753 17.432L37.1091 17.644L36.5134 17.9867C36.4354 17.886 36.3455 17.753 36.2575 17.6C36.1524 17.4172 36.0585 17.2282 35.9929 17.0756L36.5837 16.7348L36.9509 16.5238L36.8737 16.1068C36.8425 15.9375 36.8249 15.7693 36.8249 15.6C36.8249 15.431 36.8423 15.2639 36.8737 15.0932L36.9499 14.6762L36.5837 14.4643L35.9899 14.1215C35.992 14.1168 35.9937 14.1116 35.9958 14.1068C36.063 13.9544 36.159 13.7681 36.2663 13.5883C36.3537 13.4418 36.4431 13.3137 36.5202 13.2152L37.11 13.5551L37.4772 13.767L37.7995 13.4916C38.0546 13.2737 38.3508 13.1018 38.6755 12.9867L39.0749 12.8451V11.7387C39.2475 11.714 39.4228 11.6996 39.6003 11.6996C39.7777 11.6996 39.952 11.714 40.1247 11.7387V12.8451L40.5241 12.9867C40.8487 13.1018 41.1451 13.2738 41.4011 13.4926L41.7233 13.768L42.0905 13.5561L42.6852 13.2123C42.7634 13.3132 42.8537 13.4464 42.9421 13.6C43.047 13.7823 43.1401 13.971 43.2057 14.1234L42.6159 14.4652L42.2487 14.6762L42.3259 15.0932C42.3568 15.261 42.3747 15.4452 42.3747 15.6C42.3747 15.756 42.3578 15.9395 42.3268 16.1068L42.2497 16.5229L42.6169 16.7348L43.2097 17.0775C43.2076 17.0822 43.2069 17.0874 43.2048 17.0922C43.1375 17.2446 43.0407 17.4309 42.9333 17.6107C42.8457 17.7573 42.7557 17.8852 42.6784 17.9838L42.0905 17.644L41.7233 17.432L41.4011 17.7074C41.1457 17.9257 40.849 18.0982 40.5241 18.2133L40.1247 18.3549V19.4584C39.9428 19.4848 39.7573 19.5004 39.5837 19.5004C39.4176 19.5004 39.247 19.4853 39.0749 19.4604V18.3539Z" fill="#D6D3D1" stroke="#D6D3D1" stroke-width="1.2"/>
</svg>
