<svg width="48" height="24" viewBox="0 0 48 24" fill="none" xmlns="http://www.w3.org/2000/svg">
<rect x="0.5" y="0.5" width="47" height="23" rx="11.5" fill="white"/>
<rect x="0.5" y="0.5" width="47" height="23" rx="11.5" stroke="#4B5563"/>
<path d="M5.34906 7.63421H7.62463L10.028 13.4978H10.1303L12.5337 7.63421H14.8093V16.3615H13.0195V10.6811H12.9471L10.6885 16.3189H9.4698L7.21128 10.6598H7.13883V16.3615H5.34906V7.63421Z" fill="#4B5563"/>
<path d="M16.3295 16.3615V7.63421H22.2102V9.15552H18.1747V11.2351H21.9077V12.7564H18.1747V14.8402H22.2273V16.3615H16.3295Z" fill="#4B5563"/>
<path d="M25.6417 16.3615L23.1445 7.63421H25.1601L26.6047 13.6981H26.6772L28.2709 7.63421H29.9968L31.5863 13.7109H31.663L33.1076 7.63421H35.1232L32.626 16.3615H30.8278L29.1658 10.6555H29.0976L27.44 16.3615H25.6417Z" fill="#4B5563"/>
<path d="M40.7631 10.1442C40.729 9.8004 40.5827 9.53336 40.3242 9.34302C40.0657 9.15268 39.7148 9.05751 39.2716 9.05751C38.9705 9.05751 38.7162 9.10012 38.5089 9.18535C38.3015 9.26773 38.1424 9.38279 38.0316 9.53052C37.9236 9.67825 37.8697 9.84586 37.8697 10.0334C37.864 10.1896 37.8966 10.326 37.9677 10.4424C38.0415 10.5589 38.1424 10.6598 38.2702 10.745C38.3981 10.8274 38.5458 10.8998 38.7134 10.9623C38.881 11.022 39.06 11.0731 39.2503 11.1157L40.0344 11.3032C40.4151 11.3885 40.7645 11.5021 41.0827 11.6442C41.4009 11.7862 41.6765 11.9609 41.9094 12.1683C42.1424 12.3757 42.3228 12.62 42.4506 12.9013C42.5813 13.1825 42.6481 13.5049 42.6509 13.8686C42.6481 14.4027 42.5117 14.8657 42.2418 15.2578C41.9748 15.647 41.5884 15.9496 41.0827 16.1655C40.5799 16.3785 39.9733 16.4851 39.2631 16.4851C38.5586 16.4851 37.9449 16.3771 37.4222 16.1612C36.9023 15.9453 36.4961 15.6257 36.2035 15.2024C35.9137 14.7763 35.7617 14.2493 35.7475 13.6214H37.533C37.5529 13.914 37.6367 14.1584 37.7844 14.3544C37.935 14.5476 38.1353 14.6939 38.3853 14.7933C38.6381 14.8899 38.9236 14.9382 39.2418 14.9382C39.5543 14.9382 39.8256 14.8927 40.0557 14.8018C40.2887 14.7109 40.4691 14.5845 40.5969 14.4226C40.7248 14.2606 40.7887 14.0746 40.7887 13.8643C40.7887 13.6683 40.7305 13.5035 40.614 13.37C40.5003 13.2365 40.3327 13.1228 40.1111 13.0291C39.8924 12.9353 39.6239 12.8501 39.3057 12.7734L38.3555 12.5348C37.6197 12.3558 37.0387 12.076 36.6126 11.6953C36.1864 11.3146 35.9748 10.8018 35.9776 10.1569C35.9748 9.62853 36.1154 9.16688 36.3995 8.772C36.6864 8.37711 37.0799 8.06887 37.5799 7.84728C38.0799 7.62569 38.6481 7.51489 39.2844 7.51489C39.9322 7.51489 40.4975 7.62569 40.9805 7.84728C41.4662 8.06887 41.8441 8.37711 42.114 8.772C42.3839 9.16688 42.5231 9.62427 42.5316 10.1442H40.7631Z" fill="#4B5563"/>
</svg>
