<svg width="48" height="24" viewBox="0 0 48 24" fill="none" xmlns="http://www.w3.org/2000/svg">
<rect x="0.5" y="0.5" width="47" height="23" rx="11.5" fill="white"/>
<rect x="0.5" y="0.5" width="47" height="23" rx="11.5" stroke="#DC2626"/>
<path d="M10.8393 16.3615V7.63421H16.72V9.15552H12.6845V11.2351H16.4174V12.7564H12.6845V14.8402H16.737V16.3615H10.8393Z" fill="#DC2626"/>
<path d="M20.1514 16.3615L17.6543 7.63421H19.6699L21.1145 13.6981H21.187L22.7807 7.63421H24.5066L26.096 13.7109H26.1727L27.6173 7.63421H29.633L27.1358 16.3615H25.3375L23.6756 10.6555H23.6074L21.9497 16.3615H20.1514Z" fill="#DC2626"/>
<path d="M35.2729 10.1442C35.2388 9.8004 35.0925 9.53336 34.834 9.34302C34.5754 9.15268 34.2246 9.05751 33.7814 9.05751C33.4803 9.05751 33.226 9.10012 33.0186 9.18535C32.8112 9.26773 32.6521 9.38279 32.5414 9.53052C32.4334 9.67825 32.3794 9.84586 32.3794 10.0334C32.3737 10.1896 32.4064 10.326 32.4774 10.4424C32.5513 10.5589 32.6522 10.6598 32.78 10.745C32.9078 10.8274 33.0556 10.8998 33.2232 10.9623C33.3908 11.022 33.5698 11.0731 33.7601 11.1157L34.5442 11.3032C34.9249 11.3885 35.2743 11.5021 35.5925 11.6442C35.9107 11.7862 36.1862 11.9609 36.4192 12.1683C36.6521 12.3757 36.8325 12.62 36.9604 12.9013C37.0911 13.1825 37.1578 13.5049 37.1607 13.8686C37.1578 14.4027 37.0215 14.8657 36.7516 15.2578C36.4845 15.647 36.0982 15.9496 35.5925 16.1655C35.0897 16.3785 34.4831 16.4851 33.7729 16.4851C33.0683 16.4851 32.4547 16.3771 31.932 16.1612C31.4121 15.9453 31.0058 15.6257 30.7132 15.2024C30.4235 14.7763 30.2715 14.2493 30.2573 13.6214H32.0428C32.0627 13.914 32.1465 14.1584 32.2942 14.3544C32.4448 14.5476 32.645 14.6939 32.895 14.7933C33.1479 14.8899 33.4334 14.9382 33.7516 14.9382C34.0641 14.9382 34.3354 14.8927 34.5655 14.8018C34.7985 14.7109 34.9789 14.5845 35.1067 14.4226C35.2345 14.2606 35.2985 14.0746 35.2985 13.8643C35.2985 13.6683 35.2402 13.5035 35.1237 13.37C35.0101 13.2365 34.8425 13.1228 34.6209 13.0291C34.4021 12.9353 34.1337 12.8501 33.8155 12.7734L32.8652 12.5348C32.1294 12.3558 31.5485 12.076 31.1223 11.6953C30.6962 11.3146 30.4845 10.8018 30.4874 10.1569C30.4845 9.62853 30.6252 9.16688 30.9093 8.772C31.1962 8.37711 31.5896 8.06887 32.0896 7.84728C32.5896 7.62569 33.1578 7.51489 33.7942 7.51489C34.4419 7.51489 35.0073 7.62569 35.4902 7.84728C35.976 8.06887 36.3539 8.37711 36.6237 8.772C36.8936 9.16688 37.0328 9.62427 37.0414 10.1442H35.2729Z" fill="#DC2626"/>
</svg>
