<svg width="48" height="24" viewBox="0 0 48 24" fill="none" xmlns="http://www.w3.org/2000/svg">
<rect x="0.5" y="0.5" width="47" height="23" rx="11.5" fill="white"/>
<rect x="0.5" y="0.5" width="47" height="23" rx="11.5" stroke="#DC2626"/>
<path d="M6.95453 16.3615V7.63421H10.3977C11.0596 7.63421 11.6236 7.76063 12.0895 8.01347C12.5554 8.26347 12.9105 8.61148 13.1548 9.05751C13.402 9.50069 13.5256 10.0121 13.5256 10.5916C13.5256 11.1711 13.4006 11.6825 13.1506 12.1257C12.9006 12.5689 12.5383 12.914 12.0639 13.1612C11.5923 13.4084 11.0213 13.5319 10.3508 13.5319H8.15623V12.0532H10.0525C10.4077 12.0532 10.7003 11.9922 10.9304 11.87C11.1633 11.745 11.3366 11.5731 11.4503 11.3544C11.5667 11.1328 11.625 10.8785 11.625 10.5916C11.625 10.3018 11.5667 10.049 11.4503 9.83307C11.3366 9.61432 11.1633 9.44529 10.9304 9.32597C10.6974 9.20381 10.402 9.14273 10.044 9.14273H8.7997V16.3615H6.95453Z" fill="#DC2626"/>
<path d="M14.7241 16.3615V7.63421H20.6047V9.15552H16.5692V11.2351H20.3022V12.7564H16.5692V14.8402H20.6218V16.3615H14.7241Z" fill="#DC2626"/>
<path d="M24.0362 16.3615L21.539 7.63421H23.5547L24.9993 13.6981H25.0717L26.6655 7.63421H28.3913L29.9808 13.7109H30.0575L31.5021 7.63421H33.5177L31.0206 16.3615H29.2223L27.5604 10.6555H27.4922L25.8345 16.3615H24.0362Z" fill="#DC2626"/>
<path d="M39.1577 10.1442C39.1236 9.8004 38.9773 9.53336 38.7187 9.34302C38.4602 9.15268 38.1094 9.05751 37.6662 9.05751C37.365 9.05751 37.1108 9.10012 36.9034 9.18535C36.696 9.26773 36.5369 9.38279 36.4261 9.53052C36.3182 9.67825 36.2642 9.84586 36.2642 10.0334C36.2585 10.1896 36.2912 10.326 36.3622 10.4424C36.4361 10.5589 36.5369 10.6598 36.6648 10.745C36.7926 10.8274 36.9403 10.8998 37.1079 10.9623C37.2756 11.022 37.4545 11.0731 37.6449 11.1157L38.429 11.3032C38.8096 11.3885 39.1591 11.5021 39.4773 11.6442C39.7954 11.7862 40.071 11.9609 40.304 12.1683C40.5369 12.3757 40.7173 12.62 40.8452 12.9013C40.9758 13.1825 41.0426 13.5049 41.0454 13.8686C41.0426 14.4027 40.9062 14.8657 40.6363 15.2578C40.3693 15.647 39.9829 15.9496 39.4773 16.1655C38.9744 16.3785 38.3679 16.4851 37.6577 16.4851C36.9531 16.4851 36.3395 16.3771 35.8167 16.1612C35.2969 15.9453 34.8906 15.6257 34.598 15.2024C34.3082 14.7763 34.1562 14.2493 34.142 13.6214H35.9275C35.9474 13.914 36.0312 14.1584 36.179 14.3544C36.3295 14.5476 36.5298 14.6939 36.7798 14.7933C37.0327 14.8899 37.3182 14.9382 37.6363 14.9382C37.9488 14.9382 38.2202 14.8927 38.4503 14.8018C38.6832 14.7109 38.8636 14.5845 38.9915 14.4226C39.1193 14.2606 39.1832 14.0746 39.1832 13.8643C39.1832 13.6683 39.125 13.5035 39.0085 13.37C38.8949 13.2365 38.7273 13.1228 38.5057 13.0291C38.2869 12.9353 38.0184 12.8501 37.7003 12.7734L36.75 12.5348C36.0142 12.3558 35.4332 12.076 35.0071 11.6953C34.5809 11.3146 34.3693 10.8018 34.3721 10.1569C34.3693 9.62853 34.5099 9.16688 34.794 8.772C35.0809 8.37711 35.4744 8.06887 35.9744 7.84728C36.4744 7.62569 37.0426 7.51489 37.679 7.51489C38.3267 7.51489 38.892 7.62569 39.375 7.84728C39.8608 8.06887 40.2386 8.37711 40.5085 8.772C40.7784 9.16688 40.9176 9.62427 40.9261 10.1442H39.1577Z" fill="#DC2626"/>
</svg>
